<svg width="22" height="15" viewBox="0 0 22 18" fill="none" xmlns="http://www.w3.org/2000/svg">
<path d="M3.06805 18H18.724C19.2059 18 19.6806 17.884 20.1081 17.6617C20.5356 17.4394 20.9033 17.1174 21.18 16.723C21.4567 16.3285 21.6344 15.8732 21.6979 15.3956C21.7615 14.918 21.709 14.4321 21.545 13.979L18.693 6.094C18.206 4.34171 17.1583 2.79719 15.7104 1.69667C14.2624 0.59615 12.4938 0.000212078 10.675 1.01731e-09C8.78177 -2.95923e-05 6.9451 0.645588 5.46826 1.83026C3.99142 3.01493 2.96274 4.66781 2.55205 6.516L0.202048 14.116C0.0636874 14.5647 0.0325827 15.0396 0.111236 15.5025C0.18989 15.9654 0.376105 16.4034 0.654899 16.7812C0.933694 17.1591 1.29728 17.4662 1.71641 17.6779C2.13554 17.8895 2.5985 17.9999 3.06805 18Z" fill="white"/>
<circle cx="16.5" cy="2.5" r="2.5" fill="#FF0511"/>
</svg>
