<?xml version="1.0" standalone="no"?>
<!DOCTYPE svg PUBLIC "-//W3C//DTD SVG 20010904//EN"
 "http://www.w3.org/TR/2001/REC-SVG-20010904/DTD/svg10.dtd">
<svg version="1.0" xmlns="http://www.w3.org/2000/svg"
 width="12pt" height="12pt" viewBox="0 0 184.000000 168.000000"
 preserveAspectRatio="xMidYMid meet">

<g transform="translate(0.000000,168.000000) scale(0.100000,-0.100000)"
fill="#000000" stroke="none">
<path d="M743 1635 c-277 -50 -521 -212 -623 -415 -50 -100 -63 -161 -58 -279
6 -128 27 -190 102 -300 132 -193 393 -331 676 -357 75 -7 75 -7 143 -70 110
-101 266 -168 428 -181 66 -6 69 -5 80 20 10 23 6 34 -43 114 -52 83 -98 167
-98 177 0 3 40 26 89 51 169 90 304 231 361 381 32 82 39 247 15 329 -64 223
-251 400 -518 491 -154 52 -389 69 -554 39z m307 -55 c396 -42 689 -278 716
-578 7 -82 -13 -176 -57 -265 -50 -99 -179 -219 -306 -285 -144 -74 -148 -95
-49 -258 34 -57 49 -90 41 -92 -27 -6 -154 31 -231 68 -56 27 -101 59 -148
104 -73 71 -75 72 -186 80 -129 10 -280 58 -398 127 -84 50 -213 181 -251 256
-44 89 -64 182 -57 265 29 323 363 566 806 586 14 1 68 -3 120 -8z"/>
<path d="M491 1034 c-94 -66 -26 -216 85 -189 52 13 88 65 80 115 -11 74 -105
116 -165 74z"/>
<path d="M849 1021 c-23 -24 -29 -38 -29 -73 1 -96 101 -142 172 -79 28 25 33
36 33 76 0 40 -5 51 -33 76 -45 41 -102 41 -143 0z"/>
<path d="M1245 1038 c-35 -19 -55 -52 -55 -91 0 -54 52 -107 105 -107 49 0
105 53 105 99 0 84 -84 138 -155 99z"/>
</g>
</svg>
