<?xml version="1.0" standalone="no"?>
<!DOCTYPE svg PUBLIC "-//W3C//DTD SVG 20010904//EN"
 "http://www.w3.org/TR/2001/REC-SVG-20010904/DTD/svg10.dtd">
<svg version="1.0" xmlns="http://www.w3.org/2000/svg"
 width="512.000000pt" height="512.000000pt" viewBox="0 0 512.000000 512.000000"
 preserveAspectRatio="xMidYMid meet">

<g transform="translate(0.000000,512.000000) scale(0.100000,-0.100000)"
fill="#000000" stroke="none">
<path d="M2370 5114 c-637 -57 -1183 -308 -1619 -745 -393 -393 -635 -873
-723 -1434 -31 -201 -31 -549 0 -750 87 -560 330 -1042 723 -1434 399 -400
878 -638 1459 -728 161 -24 539 -24 700 0 581 90 1060 328 1459 728 400 399
638 878 728 1459 24 161 24 539 0 700 -90 581 -328 1060 -728 1459 -396 397
-881 639 -1449 726 -101 15 -455 27 -550 19z m530 -219 c58 -9 166 -31 240
-49 831 -207 1496 -869 1705 -1701 54 -215 69 -342 69 -585 0 -243 -15 -370
-69 -585 -209 -829 -871 -1491 -1700 -1700 -215 -54 -342 -69 -585 -69 -243 0
-370 15 -585 69 -867 218 -1541 924 -1725 1806 -33 163 -44 278 -44 479 0 201
11 316 44 479 148 710 619 1319 1265 1636 274 134 534 206 870 239 83 8 414
-4 515 -19z"/>
<path d="M2468 3910 c-235 -29 -385 -134 -485 -341 -28 -57 -58 -131 -67 -164
-16 -63 -36 -213 -36 -277 l0 -38 149 0 148 0 6 83 c16 234 95 396 220 455
141 66 341 52 440 -29 80 -66 131 -212 130 -374 -1 -204 -48 -294 -318 -605
-135 -156 -204 -255 -235 -337 -28 -73 -50 -214 -50 -320 l0 -83 150 0 150 0
0 83 c1 115 16 220 40 275 27 60 74 120 243 311 211 237 268 327 308 478 26
102 29 306 5 408 -68 285 -303 461 -641 479 -49 2 -120 1 -157 -4z"/>
<path d="M2370 1455 l0 -175 155 0 155 0 0 175 0 175 -155 0 -155 0 0 -175z"/>
</g>
</svg>
